<mxfile host="app.diagrams.net" agent="Mozilla/5.0 (Macintosh; Intel Mac OS X 10_15_7) AppleWebKit/537.36 (KHTML, like Gecko) Chrome/140.0.0.0 Safari/537.36" version="28.2.0">
  <diagram id="FiXUJnzLlhFP-MB1lQGa" name="Page-1">
    <mxGraphModel dx="976" dy="565" grid="1" gridSize="10" guides="1" tooltips="1" connect="1" arrows="1" fold="1" page="1" pageScale="1" pageWidth="850" pageHeight="1100" math="0" shadow="0">
      <root>
        <mxCell id="0" />
        <mxCell id="1" parent="0" />
        <mxCell id="GoCZxpnqeddnjcGpEQJ_-1" value="" style="swimlane;startSize=0;" parent="1" vertex="1">
          <mxGeometry x="40" y="160" width="400" height="280" as="geometry" />
        </mxCell>
        <mxCell id="GoCZxpnqeddnjcGpEQJ_-12" style="edgeStyle=orthogonalEdgeStyle;rounded=0;orthogonalLoop=1;jettySize=auto;html=1;exitX=0.5;exitY=1;exitDx=0;exitDy=0;entryX=0;entryY=0.5;entryDx=0;entryDy=0;" parent="GoCZxpnqeddnjcGpEQJ_-1" source="GoCZxpnqeddnjcGpEQJ_-2" target="GoCZxpnqeddnjcGpEQJ_-6" edge="1">
          <mxGeometry relative="1" as="geometry" />
        </mxCell>
        <mxCell id="GoCZxpnqeddnjcGpEQJ_-2" value="Image" style="rounded=1;whiteSpace=wrap;html=1;" parent="GoCZxpnqeddnjcGpEQJ_-1" vertex="1">
          <mxGeometry x="40" y="40" width="80" height="40" as="geometry" />
        </mxCell>
        <mxCell id="GoCZxpnqeddnjcGpEQJ_-13" style="edgeStyle=orthogonalEdgeStyle;rounded=0;orthogonalLoop=1;jettySize=auto;html=1;exitX=0.5;exitY=1;exitDx=0;exitDy=0;" parent="GoCZxpnqeddnjcGpEQJ_-1" source="GoCZxpnqeddnjcGpEQJ_-3" target="GoCZxpnqeddnjcGpEQJ_-6" edge="1">
          <mxGeometry relative="1" as="geometry" />
        </mxCell>
        <mxCell id="GoCZxpnqeddnjcGpEQJ_-3" value="Text" style="rounded=1;whiteSpace=wrap;html=1;" parent="GoCZxpnqeddnjcGpEQJ_-1" vertex="1">
          <mxGeometry x="160" y="40" width="80" height="40" as="geometry" />
        </mxCell>
        <mxCell id="GoCZxpnqeddnjcGpEQJ_-14" style="edgeStyle=orthogonalEdgeStyle;rounded=0;orthogonalLoop=1;jettySize=auto;html=1;exitX=0.5;exitY=1;exitDx=0;exitDy=0;entryX=1;entryY=0.5;entryDx=0;entryDy=0;" parent="GoCZxpnqeddnjcGpEQJ_-1" source="GoCZxpnqeddnjcGpEQJ_-4" target="GoCZxpnqeddnjcGpEQJ_-6" edge="1">
          <mxGeometry relative="1" as="geometry" />
        </mxCell>
        <mxCell id="GoCZxpnqeddnjcGpEQJ_-4" value="Author" style="rounded=1;whiteSpace=wrap;html=1;" parent="GoCZxpnqeddnjcGpEQJ_-1" vertex="1">
          <mxGeometry x="280" y="40" width="80" height="40" as="geometry" />
        </mxCell>
        <mxCell id="GoCZxpnqeddnjcGpEQJ_-15" style="edgeStyle=orthogonalEdgeStyle;rounded=0;orthogonalLoop=1;jettySize=auto;html=1;exitX=0.5;exitY=1;exitDx=0;exitDy=0;entryX=0.5;entryY=0;entryDx=0;entryDy=0;" parent="GoCZxpnqeddnjcGpEQJ_-1" source="GoCZxpnqeddnjcGpEQJ_-6" target="GoCZxpnqeddnjcGpEQJ_-7" edge="1">
          <mxGeometry relative="1" as="geometry" />
        </mxCell>
        <mxCell id="GoCZxpnqeddnjcGpEQJ_-6" value="Fusion" style="rounded=1;whiteSpace=wrap;html=1;" parent="GoCZxpnqeddnjcGpEQJ_-1" vertex="1">
          <mxGeometry x="160" y="120" width="80" height="40" as="geometry" />
        </mxCell>
        <mxCell id="GoCZxpnqeddnjcGpEQJ_-7" value="Model" style="rounded=1;whiteSpace=wrap;html=1;" parent="GoCZxpnqeddnjcGpEQJ_-1" vertex="1">
          <mxGeometry x="160" y="200" width="80" height="40" as="geometry" />
        </mxCell>
        <mxCell id="GoCZxpnqeddnjcGpEQJ_-9" style="edgeStyle=orthogonalEdgeStyle;rounded=0;orthogonalLoop=1;jettySize=auto;html=1;exitX=0;exitY=0.5;exitDx=0;exitDy=0;" parent="1" source="GoCZxpnqeddnjcGpEQJ_-5" target="GoCZxpnqeddnjcGpEQJ_-2" edge="1">
          <mxGeometry relative="1" as="geometry" />
        </mxCell>
        <mxCell id="GoCZxpnqeddnjcGpEQJ_-10" style="edgeStyle=orthogonalEdgeStyle;rounded=0;orthogonalLoop=1;jettySize=auto;html=1;exitX=0.5;exitY=1;exitDx=0;exitDy=0;entryX=0.5;entryY=0;entryDx=0;entryDy=0;" parent="1" source="GoCZxpnqeddnjcGpEQJ_-5" target="GoCZxpnqeddnjcGpEQJ_-3" edge="1">
          <mxGeometry relative="1" as="geometry" />
        </mxCell>
        <mxCell id="GoCZxpnqeddnjcGpEQJ_-11" style="edgeStyle=orthogonalEdgeStyle;rounded=0;orthogonalLoop=1;jettySize=auto;html=1;exitX=1;exitY=0.5;exitDx=0;exitDy=0;entryX=0.5;entryY=0;entryDx=0;entryDy=0;" parent="1" source="GoCZxpnqeddnjcGpEQJ_-5" target="GoCZxpnqeddnjcGpEQJ_-4" edge="1">
          <mxGeometry relative="1" as="geometry" />
        </mxCell>
        <mxCell id="GoCZxpnqeddnjcGpEQJ_-5" value="Post" style="rounded=1;whiteSpace=wrap;html=1;" parent="1" vertex="1">
          <mxGeometry x="200" y="80" width="80" height="40" as="geometry" />
        </mxCell>
        <mxCell id="GoCZxpnqeddnjcGpEQJ_-8" value="Harmful probability" style="rounded=1;whiteSpace=wrap;html=1;" parent="1" vertex="1">
          <mxGeometry x="200" y="480" width="80" height="40" as="geometry" />
        </mxCell>
        <mxCell id="GoCZxpnqeddnjcGpEQJ_-16" style="edgeStyle=orthogonalEdgeStyle;rounded=0;orthogonalLoop=1;jettySize=auto;html=1;exitX=0.5;exitY=1;exitDx=0;exitDy=0;entryX=0.5;entryY=0;entryDx=0;entryDy=0;" parent="1" source="GoCZxpnqeddnjcGpEQJ_-7" target="GoCZxpnqeddnjcGpEQJ_-8" edge="1">
          <mxGeometry relative="1" as="geometry" />
        </mxCell>
      </root>
    </mxGraphModel>
  </diagram>
</mxfile>
